<?xml version="1.0" encoding="UTF-8" standalone="no"?>
<!-- Created with Inkscape (http://www.inkscape.org/) -->

<svg
   width="402.7677mm"
   height="250.94063mm"
   viewBox="0 0 402.76771 250.94064"
   version="1.1"
   id="svg1"
   xmlns="http://www.w3.org/2000/svg"
   xmlns:svg="http://www.w3.org/2000/svg">
  <defs
     id="defs1" />
  <g
     id="layer1"
     transform="translate(769.95223,-115.52284)">
    <g
       id="g35"
       transform="translate(-478.15678,-399.25483)">
      <path
         id="path24"
         style="font-variation-settings:normal;opacity:1;vector-effect:none;fill:#5d4d02;fill-opacity:1;stroke:#393000;stroke-width:4.86795;stroke-linecap:round;stroke-linejoin:round;stroke-miterlimit:4;stroke-dasharray:none;stroke-dashoffset:0;stroke-opacity:1;-inkscape-stroke:none;stop-color:#000000;stop-opacity:1"
         d="m 105.87987,578.51121 c 12.84856,62.16266 -21.513625,124.51542 -87.590435,158.93946 -66.07683,34.42403 -151.382665,34.41469 -217.447675,-0.0238 -66.06502,-34.43848 -100.40583,-96.79875 -87.53597,-158.9586 21.21816,-81.70501 375.400065,-81.66028 392.57408,0.0429 z" />
      <path
         style="font-variation-settings:normal;opacity:0.100358;vector-effect:none;fill:#1a1a1a;fill-opacity:1;stroke:none;stroke-width:5.4085;stroke-linecap:round;stroke-linejoin:round;stroke-miterlimit:4;stroke-dasharray:none;stroke-dashoffset:0;stroke-opacity:1;-inkscape-stroke:none;stop-color:#000000;stop-opacity:1"
         d="m -93.207631,560.80102 c -71.759799,-0.008 -143.729579,10.86718 -185.190759,32.59646 57.3111,78.58436 297.451589,80.447 371.807792,1.71825 C 53.63704,572.25787 -19.620452,560.80967 -93.207631,560.80102 Z"
         id="path31" />
      <path
         id="path24-6"
         style="fill:#e6dca6;stroke:none;stroke-width:4.86795;stroke-linecap:round;stroke-linejoin:round"
         d="m 105.87987,578.51121 c 12.84856,62.16266 -21.513625,124.51542 -87.590435,158.93946 -66.07683,34.42403 -151.382665,34.41469 -217.447675,-0.0238 -66.06502,-34.43848 -100.40583,-96.79875 -87.53597,-158.9586 38.44489,98.80344 335.182593,100.65523 392.57408,0.0429 z" />
      <path
         id="path25"
         style="fill:none;stroke:#fff9da;stroke-width:4.86795;stroke-linecap:round;stroke-linejoin:round;stroke-opacity:1"
         d="m -284.51069,583.42587 c 2.94948,5.98215 6.87917,11.58355 11.66676,16.80283 69.89993,76.20272 322.67655,70.95147 377.69683,-19.9701" />
      <path
         id="path26"
         style="font-variation-settings:normal;opacity:1;vector-effect:none;fill:none;fill-opacity:1;stroke:#9c8c39;stroke-width:4.86795;stroke-linecap:round;stroke-linejoin:round;stroke-miterlimit:4;stroke-dasharray:none;stroke-dashoffset:0;stroke-opacity:1;-inkscape-stroke:none;stop-color:#000000;stop-opacity:1"
         d="m -267.24227,624.57432 c 69.85025,56.65547 266.49573742,57.28793 346.676678,-0.59606" />
      <path
         style="fill:none;fill-opacity:1;stroke:#393000;stroke-width:4.86795;stroke-linecap:round;stroke-linejoin:round;stroke-dasharray:none;stroke-opacity:1"
         id="path23"
         d="M 105.87987,578.51121 A 198.94753,158.87668 0 0 1 18.289434,737.45067 198.94753,158.87668 0 0 1 -199.15824,737.42691 198.94753,158.87668 0 0 1 -286.69421,578.46832" />
      <path
         style="font-variation-settings:normal;opacity:0.100358;vector-effect:none;fill:#1a1a1a;fill-opacity:1;stroke:none;stroke-width:5.4085;stroke-linecap:round;stroke-linejoin:round;stroke-miterlimit:4;stroke-dasharray:none;stroke-dashoffset:0;stroke-opacity:1;-inkscape-stroke:none;stop-color:#000000;stop-opacity:1"
         d="m -93.207631,592.55102 c -59.833309,-0.007 -119.690569,7.6069 -162.017499,22.71283 73.24614,50.29833 240.95573,50.99577 323.308429,0.0899 C 26.4897,600.17139 -33.24004,592.55807 -93.207631,592.55102 Z"
         id="path29" />
    </g>
  </g>
</svg>
